<?xml version="1.0" encoding="UTF-8" standalone="no"?><!DOCTYPE svg PUBLIC "-//W3C//DTD SVG 1.1//EN" "http://www.w3.org/Graphics/SVG/1.1/DTD/svg11.dtd"><svg width="100%" height="100%" viewBox="0 0 1001 1001" version="1.1" xmlns="http://www.w3.org/2000/svg" xmlns:xlink="http://www.w3.org/1999/xlink" xml:space="preserve" xmlns:serif="http://www.serif.com/" style="fill-rule:evenodd;clip-rule:evenodd;stroke-linejoin:round;stroke-miterlimit:2;"><rect id="Easy-Search" serif:id="Easy Search" x="0.109" y="0.016" width="1000" height="1000" style="fill:none;"/><path d="M995.109,401.016c0,-218.559 -177.441,-396 -396,-396l-198,0c-218.558,0 -396,177.441 -396,396l0,198c0,218.558 177.442,396 396,396l198,0c218.559,0 396,-177.442 396,-396l0,-198Z"/><path d="M791.9,718.754l-116.825,-116.825c-5.273,-5.272 -12.421,-8.202 -19.92,-8.202l-19.1,0c32.341,-41.363 51.558,-93.389 51.558,-149.985c0,-134.636 -109.091,-243.726 -243.726,-243.726c-134.636,0 -243.726,109.09 -243.726,243.726c0,134.635 109.09,243.726 243.726,243.726c56.596,0 108.622,-19.217 149.985,-51.557l0,19.099c0,7.499 2.93,14.647 8.202,19.92l116.825,116.825c11.015,11.014 28.825,11.014 39.723,0l33.16,-33.161c11.015,-11.015 11.015,-28.825 0.118,-39.84Zm-348.013,-125.027c-82.844,0 -149.986,-67.025 -149.986,-149.985c0,-82.844 67.025,-149.986 149.986,-149.986c82.843,0 149.985,67.025 149.985,149.986c0,82.843 -67.025,149.985 -149.985,149.985Z" style="fill:#fff;fill-rule:nonzero;"/></svg>